<svg width="60" height="210" viewBox="0 0 60 210" fill="none" xmlns="http://www.w3.org/2000/svg">
<path d="M26.96 2H3.04C2.46475 2 2 2.46475 2 3.04V26.96C2 27.5352 2.46475 28 3.04 28H26.96C27.5352 28 28 27.5352 28 26.96V3.04C28 2.46475 27.5352 2 26.96 2ZM23.957 9.58875H21.8802C20.252 9.58875 19.9368 10.3622 19.9368 11.4997V14.0055H23.8237L23.3167 17.9282H19.9368V28H15.884V17.9315H12.4942V14.0055H15.884V11.113C15.884 7.75575 17.9347 5.926 20.9312 5.926C22.3678 5.926 23.5995 6.03325 23.9602 6.082V9.58875H23.957Z" fill="black"/>
<path d="M56.96 2H33.04C32.4647 2 32 2.46475 32 3.04V26.96C32 27.5352 32.4647 28 33.04 28H56.96C57.5352 28 58 27.5352 58 26.96V3.04C58 2.46475 57.5352 2 56.96 2ZM39.7122 24.1552H35.8545V11.7467H39.7122V24.1552ZM37.785 10.0503C37.3428 10.0503 36.9105 9.91911 36.5427 9.67342C36.175 9.42772 35.8884 9.07851 35.7192 8.66993C35.55 8.26135 35.5057 7.81177 35.592 7.37803C35.6782 6.94429 35.8912 6.54587 36.2039 6.23316C36.5166 5.92045 36.915 5.70749 37.3488 5.62121C37.7825 5.53494 38.2321 5.57922 38.6407 5.74846C39.0493 5.91769 39.3985 6.20429 39.6442 6.57199C39.8899 6.9397 40.021 7.37201 40.021 7.81425C40.0177 9.04925 39.0167 10.0503 37.785 10.0503ZM54.1552 24.1552H50.3007V18.12C50.3007 16.6802 50.2747 14.831 48.2955 14.831C46.2902 14.831 45.9815 16.3975 45.9815 18.016V24.1552H42.1302V11.7467H45.8287V13.4432H45.8807C46.3942 12.4683 47.652 11.438 49.5305 11.438C53.437 11.438 54.1552 14.0087 54.1552 17.3497V24.1552Z" fill="black"/>
<path d="M28 37.3758C27.0439 37.7663 26.0034 38.0473 24.9316 38.1568C26.0443 37.5309 26.8776 36.542 27.2751 35.3758C26.2309 35.9639 25.0871 36.3763 23.8942 36.5947C23.3957 36.09 22.7927 35.688 22.1229 35.4136C21.4531 35.1393 20.7308 34.9985 20.001 35C17.0482 35 14.6735 37.2663 14.6735 40.0473C14.6735 40.4379 14.7235 40.8284 14.8047 41.2042C10.3834 40.9852 6.44009 38.9852 3.81853 35.9231C3.34086 36.6956 3.09054 37.5752 3.09362 38.4704C3.09362 40.2219 4.03413 41.7663 5.46833 42.6746C4.62314 42.643 3.79773 42.4231 3.05925 42.0326V42.0947C3.05925 44.5473 4.89028 46.5799 7.33061 47.0473C6.87241 47.16 6.40106 47.2177 5.92765 47.2189C5.58082 47.2189 5.25273 47.1864 4.92152 47.142C5.59644 49.142 7.56183 50.5947 9.90217 50.642C8.07115 52 5.77767 52.7988 3.28735 52.7988C2.84052 52.7988 2.42807 52.784 2 52.7367C4.36222 54.1716 7.165 55 10.1834 55C19.9822 55 25.3441 47.3136 25.3441 40.642C25.3441 40.4231 25.3441 40.2042 25.3284 39.9852C26.3658 39.2663 27.2751 38.3757 28 37.3758Z" fill="black"/>
<path d="M42.4363 56.0118C42.4363 56.8527 41.7862 57.5 41.0258 57.5C40.2653 57.5 39.6152 56.8527 39.6152 56.0118C39.6152 55.171 40.2653 54.5237 41.0258 54.5237C41.7862 54.5237 42.4363 55.171 42.4363 56.0118Z" fill="black" stroke="black"/>
<path d="M54.044 56.0118C54.044 56.8527 53.3939 57.5 52.6334 57.5C51.873 57.5 51.2229 56.8527 51.2229 56.0118C51.2229 55.171 51.873 54.5237 52.6334 54.5237C53.3939 54.5237 54.044 55.171 54.044 56.0118Z" fill="black" stroke="black"/>
<path d="M57.4017 34.7765L57.4016 34.7766L57.4098 34.7867C57.4459 34.8305 57.473 34.8838 57.4877 34.9429L57.9729 34.8222L57.4877 34.9429C57.5021 35.0006 57.5039 35.0612 57.493 35.1199L54.8025 47.4846L54.8024 47.4852C54.7828 47.5761 54.7342 47.6531 54.6699 47.7053L54.9638 48.0674L54.6699 47.7053C54.606 47.7572 54.5299 47.7822 54.4547 47.7803L54.4547 47.7801H54.442H41.3314H41.1454L41.0046 47.9017L38.9582 49.669L38.8894 49.7284L38.8459 49.8082C38.7575 49.9705 38.7114 50.1524 38.711 50.3366C38.7105 50.5207 38.7557 50.7028 38.8432 50.8655L39.2835 50.6286L38.8432 50.8655C38.9309 51.0284 39.0586 51.1673 39.2161 51.2672C39.3738 51.3671 39.5552 51.424 39.7427 51.4307L39.7516 51.431H39.7605H54.0684C54.1544 51.431 54.2411 51.4664 54.3083 51.5363C54.3761 51.6068 54.4175 51.7066 54.4175 51.8146C54.4175 51.9227 54.3761 52.0225 54.3083 52.093C54.2411 52.1629 54.1544 52.1983 54.0684 52.1983H39.8963H39.8835L39.8706 52.1989C39.588 52.2135 39.3054 52.1591 39.0452 52.0393C38.7863 51.9201 38.5558 51.7389 38.3728 51.5087C38.1187 51.1712 37.9832 50.7495 37.993 50.3155C38.0028 49.8855 38.1545 49.4748 38.4187 49.1521L38.4987 49.0689L39.8721 47.9011L40.122 47.6886L40.0266 47.3747L36.129 34.5622L36.0526 34.3111L35.8026 34.2313L32.7546 33.2595C32.7545 33.2594 32.7545 33.2594 32.7544 33.2594C32.6694 33.2322 32.592 33.1688 32.5448 33.076C32.4973 32.9827 32.4867 32.8714 32.5171 32.7684C32.5475 32.6657 32.6139 32.5858 32.6949 32.5411C32.735 32.519 32.778 32.5058 32.8214 32.5015C32.8648 32.4973 32.9087 32.5019 32.951 32.5154C32.951 32.5154 32.951 32.5154 32.951 32.5154L36.4324 33.6288L36.4334 33.6291C36.4848 33.6454 36.5336 33.675 36.5748 33.7173L36.9327 33.3681L36.5748 33.7173C36.6159 33.7594 36.6482 33.8128 36.6672 33.8736C36.6673 33.874 36.6674 33.8743 36.6675 33.8746L40.5472 46.6581L40.6549 47.0129H41.0257H53.7627H54.1671L54.2516 46.6174L56.5188 36.014L56.6481 35.4094H56.0299H40.3829L40.1433 34.6422H57.1401C57.188 34.6427 57.236 34.6541 57.2808 34.6765C57.3261 34.6992 57.3677 34.7329 57.4017 34.7765Z" fill="black" stroke="black"/>
<path d="M21.5 69.7037C21.5 74.5185 18.25 78.3704 15 78.3704C11.75 78.3704 8.5 74.5185 8.5 69.7037C8.5 64.8889 10.6667 62 15 62C19.3333 62 21.5 64.8889 21.5 69.7037ZM2 88H28C28 79.3333 21.5 78.3704 15 78.3704C8.5 78.3704 2 79.3333 2 88Z" stroke="black" stroke-width="2" stroke-linecap="round" stroke-linejoin="round"/>
<path d="M45.2891 77.6001C48.3223 77.6001 50.789 75.2679 50.789 72.4001C50.789 69.5323 48.3223 67.2 45.2891 67.2C42.2558 67.2 39.7891 69.5323 39.7891 72.4001C39.7891 75.2679 42.2558 77.6001 45.2891 77.6001ZM45.2891 69.8001C46.8057 69.8001 48.039 70.9662 48.039 72.4001C48.039 73.834 46.8057 75.0001 45.2891 75.0001C43.7725 75.0001 42.5391 73.834 42.5391 72.4001C42.5391 70.9662 43.7725 69.8001 45.2891 69.8001Z" fill="black"/>
<path d="M44.2025 87.7584C44.4352 87.9155 44.714 88 45 88C45.286 88 45.5648 87.9155 45.7975 87.7584C46.2155 87.4789 56.0398 80.7722 55.9999 72.4001C55.9999 66.6657 51.0651 62 45 62C38.9349 62 34.0001 66.6657 34.0001 72.3936C33.9602 80.7722 43.7845 87.4789 44.2025 87.7584ZM45 64.6C49.5498 64.6 53.2499 68.0983 53.2499 72.4066C53.2788 78.176 47.2165 83.3566 45 85.0557C42.7849 83.3553 36.7212 78.1734 36.7501 72.4001C36.7501 68.0983 40.4502 64.6 45 64.6Z" fill="black"/>
<path d="M27.0714 95H2.92857C2.41496 95 2 95.4062 2 95.9091V114.091C2 114.594 2.41496 115 2.92857 115H27.0714C27.585 115 28 114.594 28 114.091V95.9091C28 95.4062 27.585 95 27.0714 95ZM25.9107 98.1477V112.955H4.08929V98.1477L3.28839 97.5369L4.42879 96.1023L5.67076 97.0483H24.3321L25.5741 96.1023L26.7145 97.5369L25.9107 98.1477ZM24.3321 97.0455L15 104.148L5.66786 97.0455L4.42589 96.0994L3.28549 97.5341L4.08638 98.1449L13.9989 105.69C14.284 105.907 14.6347 106.025 14.9956 106.025C15.3566 106.025 15.7073 105.907 15.9924 105.69L25.9107 98.1477L26.7116 97.5369L25.5712 96.1023L24.3321 97.0455Z" fill="black"/>
<path d="M50.7143 92H39.2857C36.9143 92 35 93.5836 35 95.5455V114.455C35 116.416 36.9143 118 39.2857 118H50.7143C53.0857 118 55 116.416 55 114.455V95.5455C55 93.5836 53.0857 92 50.7143 92ZM47.8571 115.636H42.1429V114.455H47.8571V115.636ZM52.5 112.091H37.5V95.5455H52.5V112.091Z" fill="black"/>
<path fill-rule="evenodd" clip-rule="evenodd" d="M18.968 138.969C19.1189 138.817 19.2981 138.698 19.4954 138.616C19.6927 138.534 19.9041 138.492 20.1177 138.492C20.3312 138.492 20.5427 138.534 20.7399 138.616C20.9372 138.698 21.1164 138.817 21.2673 138.969L27.5235 145.225C27.8284 145.53 27.9998 145.943 28 146.374C28.0001 146.805 27.829 147.219 27.5243 147.524C27.2196 147.828 26.8063 148 26.3752 148C25.9442 148 25.5307 147.829 25.2258 147.524L18.9696 141.268C18.8185 141.117 18.6987 140.938 18.6169 140.741C18.5351 140.543 18.493 140.332 18.493 140.118C18.493 139.905 18.5351 139.693 18.6169 139.496C18.6987 139.299 18.8185 139.119 18.9696 138.969H18.968Z" fill="black"/>
<path fill-rule="evenodd" clip-rule="evenodd" d="M12.5624 141.5C13.736 141.5 14.8982 141.269 15.9826 140.82C17.0669 140.371 18.0521 139.713 18.8821 138.883C19.712 138.053 20.3703 137.067 20.8194 135.983C21.2686 134.899 21.4998 133.736 21.4998 132.563C21.4998 131.389 21.2686 130.227 20.8194 129.142C20.3703 128.058 19.712 127.073 18.8821 126.243C18.0521 125.413 17.0669 124.755 15.9826 124.305C14.8982 123.856 13.736 123.625 12.5624 123.625C10.192 123.625 7.91877 124.567 6.24268 126.243C4.56659 127.919 3.62498 130.192 3.62498 132.563C3.62498 134.933 4.56659 137.206 6.24268 138.883C7.91877 140.559 10.192 141.5 12.5624 141.5ZM23.1247 132.563C23.1247 135.364 22.0119 138.051 20.0311 140.032C18.0503 142.013 15.3637 143.125 12.5624 143.125C9.76105 143.125 7.07447 142.013 5.09365 140.032C3.11282 138.051 2 135.364 2 132.563C2 129.761 3.11282 127.075 5.09365 125.094C7.07447 123.113 9.76105 122 12.5624 122C15.3637 122 18.0503 123.113 20.0311 125.094C22.0119 127.075 23.1247 129.761 23.1247 132.563Z" fill="black"/>
<path d="M50.9883 123.58C51.7391 123.579 52.4808 123.747 53.1693 124.07C53.8576 124.394 54.4773 124.866 54.994 125.456C56.0538 126.661 56.64 128.275 56.64 129.946C56.64 131.617 56.0537 133.23 54.9936 134.436L54.9932 134.436L45.3751 145.346L45 145.771L44.6249 145.346L35.0068 134.436L35.0064 134.436C33.9463 133.23 33.36 131.617 33.36 129.946C33.36 128.275 33.9463 126.661 35.0064 125.455C35.5232 124.866 36.1429 124.394 36.8309 124.071C37.5194 123.747 38.261 123.58 39.0119 123.58C39.7627 123.58 40.5043 123.747 41.1928 124.071C41.8811 124.394 42.5009 124.866 43.0179 125.456L43.0187 125.457L45.0007 127.73L46.9702 125.48C46.9706 125.479 46.9711 125.479 46.9715 125.478C47.4865 124.882 48.1068 124.404 48.7972 124.076C49.4882 123.748 50.2336 123.579 50.9883 123.58ZM50.9883 123.58C50.9885 123.58 50.9887 123.58 50.9889 123.58L50.9881 124.08L50.9877 123.58C50.9879 123.58 50.9881 123.58 50.9883 123.58ZM50.9877 122.5L50.988 122.5C51.8361 122.5 52.6774 122.69 53.4634 123.059C54.2496 123.428 54.9663 123.971 55.5699 124.659C56.8019 126.064 57.5 127.966 57.5 129.956C57.5 131.946 56.8021 133.847 55.5705 135.252C55.5703 135.252 55.5701 135.252 55.5698 135.253L45 147.244L34.4302 135.253C34.43 135.253 34.4299 135.252 34.4297 135.252C33.198 133.847 32.5 131.946 32.5 129.956C32.5 127.966 33.1981 126.064 34.43 124.659C35.0337 123.972 35.7505 123.429 36.5367 123.06C37.3226 122.691 38.1639 122.502 39.0119 122.502C39.8599 122.502 40.7011 122.691 41.4871 123.06C42.2733 123.429 42.99 123.972 43.5938 124.659L43.595 124.661L44.6255 125.826L45 126.249L45.3745 125.826L46.405 124.661L46.4067 124.659C47.0097 123.97 47.7261 123.427 48.5123 123.057C49.2982 122.688 50.1396 122.499 50.9877 122.5Z" stroke="black"/>
<path d="M9.57735 152.684C9.39433 152.899 9.24913 153.155 9.15006 153.437C9.05099 153.719 9 154.021 9 154.326C9 154.631 9.05099 154.933 9.15006 155.214C9.24913 155.496 9.39433 155.752 9.57735 155.967L17.2373 165.002L9.57735 174.037C9.20821 174.472 9.00084 175.063 9.00084 175.678C9.00084 176.294 9.20821 176.885 9.57735 177.32C9.94648 177.755 10.4471 178 10.9692 178C11.4912 178 11.9919 177.755 12.361 177.32L21.4227 166.632C21.6057 166.417 21.7509 166.161 21.8499 165.879C21.949 165.597 22 165.295 22 164.99C22 164.685 21.949 164.383 21.8499 164.102C21.7509 163.82 21.6057 163.564 21.4227 163.349L12.361 152.661C11.6108 151.776 10.3473 151.776 9.57735 152.684Z" fill="black"/>
<path d="M45 178L35 171.105L38.3349 168.807L45 173.404L51.6651 168.807L55 171.105L45 178Z" fill="black"/>
<path d="M45 152L55 158.895L51.6651 161.193L45 156.596L38.3349 161.193L35 158.895L45 152Z" fill="black"/>
<path d="M21.4227 182.684C21.6057 182.899 21.7509 183.155 21.8499 183.437C21.949 183.719 22 184.021 22 184.326C22 184.631 21.949 184.933 21.8499 185.214C21.7509 185.496 21.6057 185.752 21.4227 185.967L13.7627 195.002L21.4227 204.037C21.7918 204.472 21.9992 205.063 21.9992 205.678C21.9992 206.294 21.7918 206.885 21.4227 207.32C21.0535 207.755 20.5529 208 20.0308 208C19.5088 208 19.0081 207.755 18.639 207.32L9.57735 196.632C9.39433 196.417 9.24913 196.161 9.15006 195.879C9.05099 195.597 9 195.295 9 194.99C9 194.685 9.05099 194.383 9.15006 194.102C9.24913 193.82 9.39433 193.564 9.57735 193.349L18.639 182.661C19.3892 181.776 20.6527 181.776 21.4227 182.684Z" fill="black"/>
</svg>
